<?xml version="1.0" encoding="utf-8"?>
<!-- Generator: Adobe Illustrator 27.0.0, SVG Export Plug-In . SVG Version: 6.00 Build 0)  -->
<svg version="1.1" id="Ebene_1" xmlns="http://www.w3.org/2000/svg" xmlns:xlink="http://www.w3.org/1999/xlink" x="0px" y="0px"
	 viewBox="79.5 77 617 160" xml:space="preserve">
<style type="text/css">
	.st0{fill:#FFED00;}
</style>
<g>
	<path d="M220.5,142.2L271.1,84h-13.8c-3,0-5.9,1.3-7.9,3.6l-38.2,44L220.5,142.2z"/>
	<path d="M192.5,153l-49.6,57.1h13.6c3,0,5.9-1.3,7.9-3.6l37.3-42.9L192.5,153z"/>
	<path d="M181.8,110l66.4,76.4h-13.6c-3,0-5.9-1.3-7.9-3.6l-66.5-76.4H174C177,106.4,179.8,107.8,181.8,110"/>
	<path class="st0" d="M191.3,150.6l-49.6,57.1h13.6c3,0,5.9-1.3,7.9-3.6l37.3-42.9L191.3,150.6z M220.4,138.4l50.7-58.2h-13.8
		c-3,0-5.9,1.3-7.9,3.6l-38.2,44L220.4,138.4z"/>
	<path class="st0" d="M182.9,107.6l66.4,76.4h-13.6c-3,0-5.9-1.3-7.9-3.6L161.3,104H175C178,103.9,180.9,105.3,182.9,107.6"/>
	<path d="M548,104c-4.4,0-8.2,0.6-11.4,1.7s-5.7,2.7-7.8,4.8c-2,2.1-3.5,4.5-4.4,7.3s-1.4,5.9-1.4,9.2c0,2.8,0.4,5.5,1.1,8.3
		c0.7,2.8,2.1,5.2,4,7.5c1.9,2.2,4.6,4,8,5.3s7.8,2,13.1,2h29.1c2.4,0,4.5,0.3,6.1,0.8c1.6,0.6,2.9,1.3,3.8,2.2c0.9,0.9,1.6,2,2,3.2
		s0.6,2.5,0.6,3.7c0,2.9-0.9,5.3-2.7,7.2s-4.6,2.8-8.3,2.8h-51c-2.5,0-4.5,2-4.5,4.5v9.5h55c4.6,0,8.5-0.6,11.7-1.8s5.8-2.8,7.9-4.9
		c2-2.1,3.5-4.6,4.5-7.4c0.9-2.8,1.4-6,1.4-9.3c0-2.8-0.4-5.7-1.1-8.5c-0.8-2.8-2.1-5.4-4.1-7.6c-2-2.2-4.8-4-8.2-5.4
		c-3.5-1.4-7.9-2.1-13.4-2.1h-29.2c-2.4,0-4.3-0.3-5.8-0.8s-2.7-1.2-3.6-2.1c-0.9-0.9-1.5-1.9-1.9-3.1c-0.4-1.1-0.5-2.3-0.5-3.5
		c0-2.8,0.8-5,2.5-6.8s4.3-2.7,7.9-2.7h47c2.5,0,4.5-2,4.5-4.5V104H548z"/>
	<path d="M266.3,208.1h3.5v13.3h0.1c0.7-1.1,1.5-2,2.2-2.9l8.4-10.3h4.4l-9.9,11.7l10.7,15.8h-4.2l-9.1-13.5l-2.6,3v10.5h-3.5V208.1
		z"/>
	<path d="M323.2,204.1c0-1.1,0.9-2,2-2s2,0.9,2,2s-0.8,2.1-2,2.1C324,206.2,323.2,205.3,323.2,204.1 M315.6,204.1c0-1.1,0.9-2,2-2
		s2,0.9,2,2s-0.8,2.1-2,2.1C316.4,206.2,315.6,205.3,315.6,204.1 M314.7,208.1v16.3c0,6.2,2.7,8.8,6.4,8.8c4.1,0,6.7-2.7,6.7-8.8
		v-16.3h3.6v16c0,8.4-4.4,11.9-10.4,11.9c-5.6,0-9.9-3.2-9.9-11.7v-16.2H314.7z"/>
	<path d="M377,234.7c-1.3,0.7-3.9,1.3-7.3,1.3c-7.8,0-13.6-4.9-13.6-13.9c0-8.6,5.8-14.4,14.4-14.4c3.4,0,5.6,0.7,6.5,1.2l-0.9,2.9
		c-1.3-0.7-3.3-1.1-5.5-1.1c-6.4,0-10.7,4.1-10.7,11.3c0,6.7,3.9,11.1,10.6,11.1c2.2,0,4.4-0.4,5.8-1.1L377,234.7z"/>
	<polygon points="418.4,208.1 418.4,219.6 405.1,219.6 405.1,208.1 401.6,208.1 401.6,235.6 405.1,235.6 405.1,222.7 418.4,222.7 
		418.4,235.6 422,235.6 422,208.1 	"/>
	<polygon points="448.4,208.1 448.4,235.6 463.9,235.6 463.9,232.7 451.9,232.7 451.9,222.7 462.6,222.7 462.6,219.8 451.9,219.8 
		451.9,211.1 463.2,211.1 463.2,208.1 	"/>
	<path d="M488.6,235.6v-27.5h3.9l8.8,13.9c2,3.2,3.6,6.1,4.9,8.9h0.1c-0.3-3.7-0.4-7-0.4-11.3v-11.5h3.3v27.5h-3.6l-8.7-13.9
		c-1.9-3.1-3.8-6.2-5.1-9.2h-0.1c0.2,3.5,0.3,6.8,0.3,11.3v11.7h-3.4L488.6,235.6L488.6,235.6z"/>
	<path d="M94.5,169.9v-19H146c2.5,0,4.5-2,4.5-4.5V137h-56v-19H146c2.5,0,4.5-2,4.5-4.5V104h-70v79.3v0.6H146c2.5,0,4.5-2,4.5-4.5
		v-9.5L94.5,169.9L94.5,169.9z"/>
	<path d="M453.5,169.9v-19H505c2.5,0,4.5-2,4.5-4.5V137h-55.9v-19H505c2.5,0,4.5-2,4.5-4.5V104h-69.9v3.5l0,0v75.8l0,0v0.6H505
		c2.5,0,4.5-2,4.5-4.5v-9.5L453.5,169.9L453.5,169.9z"/>
	<path d="M338.3,127.9c0-3.2-0.5-6.2-1.5-9.1s-2.5-5.5-4.6-7.6c-2.1-2.2-4.8-3.9-8-5.2c-3.2-1.3-7.1-2-11.6-2h-46.5v80h9.5
		c2.5,0,4.5-2,4.5-4.5V153h32.6c4.7,0,8.6-0.8,11.9-2.2c3.3-1.5,5.9-3.4,8-5.8c2.1-2.4,3.5-5,4.4-8
		C337.8,133.9,338.3,130.9,338.3,127.9 M324.2,128.6c0,1.4-0.2,2.8-0.7,4.1c-0.4,1.3-1.1,2.5-2,3.5s-2,1.9-3.4,2.5s-3.1,0.9-5.1,0.9
		h-33V118h33.1c3.8,0,6.6,1,8.3,3.1C323.3,123.2,324.2,125.7,324.2,128.6"/>
</g>
<g>
	<path d="M424.6,127.7c0-3.2-0.5-6.2-1.5-9.1s-2.5-5.5-4.6-7.6c-2.1-2.2-4.8-3.9-8-5.2c-3.2-1.3-7.1-2-11.6-2h-46.5l-0.1,0.2v80h9.5
		c2.5,0,4.5-2,4.5-4.5v-26.7h27l14,28.7c0.7,1.5,2.3,2.5,4,2.5H424l-15.8-32.4c0.9-0.3,1.8-0.6,2.6-1c3.3-1.5,5.9-3.4,8-5.8
		c2.1-2.4,3.5-5,4.4-8C424.2,133.7,424.6,130.7,424.6,127.7 M410.6,128.4c0,1.4-0.2,2.8-0.7,4.1c-0.4,1.3-1.1,2.5-2,3.5
		s-2,1.9-3.4,2.5s-3.1,0.9-5.1,0.9h-33.1v-21.7h33.2c3.8,0,6.6,1,8.3,3.1C409.7,123,410.6,125.5,410.6,128.4"/>
	<path d="M638,104c-4.4,0-8.2,0.6-11.4,1.7s-5.7,2.7-7.8,4.8c-2,2.1-3.5,4.5-4.4,7.3s-1.4,5.9-1.4,9.2c0,2.8,0.4,5.5,1.1,8.3
		c0.7,2.8,2.1,5.2,4,7.5c1.9,2.2,4.6,4,8,5.3s7.8,2,13.1,2h29.1c2.4,0,4.5,0.3,6.1,0.8c1.6,0.6,2.9,1.3,3.8,2.2c0.9,0.9,1.6,2,2,3.2
		s0.6,2.5,0.6,3.7c0,2.9-0.9,5.3-2.7,7.2s-4.6,2.8-8.3,2.8h-51c-2.5,0-4.5,2-4.5,4.5v9.5h55c4.6,0,8.5-0.6,11.7-1.8s5.8-2.8,7.9-4.9
		c2-2.1,3.5-4.6,4.5-7.4c0.9-2.8,1.4-6,1.4-9.3c0-2.8-0.4-5.7-1.1-8.5c-0.8-2.8-2.1-5.4-4.1-7.6c-2-2.2-4.8-4-8.2-5.4
		c-3.5-1.4-7.9-2.1-13.4-2.1h-29.2c-2.4,0-4.3-0.3-5.8-0.8s-2.7-1.2-3.6-2.1c-0.9-0.9-1.5-1.9-1.9-3.1c-0.4-1.1-0.5-2.3-0.5-3.5
		c0-2.8,0.8-5,2.5-6.8s4.3-2.7,7.9-2.7h47c2.5,0,4.5-2,4.5-4.5V104H638z"/>
</g>
</svg>
